<?xml version="1.0" standalone="no"?>
<!DOCTYPE svg PUBLIC "-//W3C//DTD SVG 20010904//EN"
 "http://www.w3.org/TR/2001/REC-SVG-20010904/DTD/svg10.dtd">
<svg version="1.0" xmlns="http://www.w3.org/2000/svg"
 width="800.000000pt" height="600.000000pt" viewBox="0 0 800.000000 600.000000"
 preserveAspectRatio="xMidYMid meet">
<metadata>
Created by potrace 1.16, written by Peter Selinger 2001-2019
</metadata>
<g transform="translate(0.000000,600.000000) scale(0.100000,-0.100000)"
fill="#000000" stroke="none">
<path d="M3908 5374 c-99 -18 -398 -95 -548 -141 l-114 -35 29 -24 c17 -14 40
-27 52 -30 20 -5 193 50 256 83 25 12 36 12 103 -7 96 -26 149 -53 171 -87 17
-25 18 -80 21 -755 3 -535 7 -729 15 -736 12 -9 234 -112 243 -112 2 0 1 348
-2 773 l-6 772 34 37 c19 20 48 40 64 44 28 7 245 -19 462 -56 86 -14 109 -15
140 -5 42 15 62 10 62 -15 0 -15 7 -17 46 -12 40 4 46 2 51 -18 5 -19 10 -21
44 -16 31 5 40 3 48 -12 7 -14 18 -17 46 -14 30 4 37 1 42 -17 4 -15 13 -21
34 -21 15 0 32 -7 37 -16 5 -9 23 -23 41 -30 l31 -13 0 47 0 47 -106 60 c-194
108 -466 215 -679 269 -217 55 -453 70 -617 40z m300 -53 c-1 -4 -27 -34 -56
-66 l-53 -58 -77 6 c-76 6 -179 31 -196 47 -12 12 65 49 137 64 69 16 251 21
245 7z m284 -32 c77 -21 298 -123 298 -138 0 -5 -28 -2 -62 5 -87 19 -231 41
-377 59 -68 8 -127 18 -130 21 -3 3 14 24 39 46 44 39 46 40 102 34 31 -4 89
-16 130 -27z"/>
<path d="M3735 4786 c-300 -97 -518 -329 -601 -642 -24 -92 -25 -300 -1 -398
57 -230 194 -427 382 -549 39 -24 223 -115 410 -202 441 -204 517 -243 598
-310 88 -73 148 -149 203 -260 61 -124 84 -221 84 -359 0 -242 -82 -432 -258
-598 -39 -36 -97 -82 -129 -101 -59 -34 -182 -87 -202 -87 -6 0 -11 -18 -11
-41 0 -40 1 -41 28 -34 124 31 271 116 378 220 169 165 258 361 271 595 16
306 -144 616 -402 782 -39 25 -252 130 -474 234 -222 103 -429 204 -460 224
-378 246 -479 777 -217 1144 108 151 291 280 459 321 24 6 27 12 27 46 0 21
-3 39 -7 39 -5 -1 -40 -11 -78 -24z"/>
<path d="M4192 4768 c3 -39 4 -41 58 -58 150 -46 305 -158 402 -288 50 -67
112 -197 135 -282 25 -92 25 -309 -1 -405 -10 -38 -52 -142 -92 -231 -45 -97
-72 -168 -68 -178 7 -19 47 -21 61 -3 6 6 44 86 86 177 97 213 112 275 111
450 -1 116 -5 148 -28 224 -33 111 -100 241 -166 323 -101 127 -279 245 -438
293 l-63 18 3 -40z"/>
<path d="M3765 4640 c-186 -64 -333 -191 -420 -365 -62 -124 -79 -195 -79
-335 0 -89 5 -133 22 -193 57 -201 190 -366 371 -460 111 -59 801 -377 816
-377 8 0 19 10 26 21 9 17 8 24 -4 36 -8 8 -186 95 -397 193 -210 98 -411 196
-447 217 -90 52 -192 164 -242 263 -102 203 -94 448 21 637 75 123 211 239
329 278 55 19 62 28 57 73 l-3 29 -50 -17z"/>
<path d="M4190 4612 c0 -40 1 -41 50 -57 71 -24 187 -102 245 -167 110 -121
165 -254 173 -414 6 -140 -14 -223 -100 -411 -38 -83 -68 -160 -66 -170 2 -12
12 -18 31 -18 27 0 33 9 108 171 85 184 109 269 109 393 0 197 -76 377 -220
521 -70 71 -102 94 -180 133 -52 26 -107 50 -122 53 -27 6 -28 5 -28 -34z"/>
<path d="M3725 4462 c-376 -200 -423 -723 -89 -986 66 -52 44 -41 517 -260
310 -144 382 -174 398 -166 20 11 23 19 13 43 -3 8 -192 101 -420 207 -456
213 -496 237 -571 350 -104 154 -117 345 -37 517 35 75 158 198 232 232 49 23
52 26 52 63 0 24 -5 38 -12 38 -7 0 -44 -17 -83 -38z"/>
<path d="M4190 4460 c0 -35 4 -42 28 -52 54 -24 144 -93 182 -141 69 -87 120
-224 120 -327 0 -74 -32 -178 -99 -323 -55 -119 -68 -155 -60 -169 6 -12 19
-18 32 -16 17 2 34 28 74 108 93 187 114 253 120 365 6 118 -10 200 -59 302
-44 92 -167 215 -260 261 -36 17 -69 32 -72 32 -3 0 -6 -18 -6 -40z"/>
<path d="M3759 4312 c-156 -100 -232 -301 -184 -485 22 -86 51 -135 119 -202
59 -59 74 -67 474 -253 235 -110 423 -192 435 -190 31 4 34 43 5 62 -13 8
-193 94 -401 190 -208 97 -399 190 -423 207 -88 60 -154 188 -154 298 0 106
58 224 140 287 45 34 50 42 50 76 0 21 -4 38 -8 38 -4 0 -28 -13 -53 -28z"/>
<path d="M4190 4298 c0 -38 4 -46 35 -66 44 -30 79 -77 113 -150 23 -49 27
-70 27 -147 l-1 -90 -72 -154 c-40 -85 -72 -161 -70 -169 5 -24 34 -38 51 -24
8 7 47 83 88 170 72 155 73 158 77 252 6 147 -36 250 -141 347 -24 23 -59 49
-76 57 l-31 17 0 -43z"/>
<path d="M3494 3076 c-3 -8 -4 -22 -2 -31 2 -11 139 -80 405 -204 221 -103
427 -203 458 -222 83 -49 187 -165 234 -259 55 -111 75 -208 68 -334 -14 -246
-151 -453 -370 -559 -87 -42 -87 -42 -85 -77 4 -45 14 -44 138 17 169 83 300
239 367 438 37 109 39 290 5 408 -53 187 -176 348 -336 442 -76 45 -836 395
-857 395 -11 0 -22 -6 -25 -14z"/>
<path d="M3440 2945 c-30 -36 -10 -47 414 -245 305 -142 433 -207 474 -240
137 -110 216 -319 182 -485 -6 -33 -29 -96 -50 -140 -43 -90 -120 -173 -205
-222 -44 -26 -50 -34 -53 -66 -4 -46 3 -46 82 -5 132 70 255 231 291 383 54
228 -45 486 -237 618 -47 32 -856 417 -877 417 -5 0 -14 -7 -21 -15z"/>
<path d="M3371 2802 c-5 -10 -6 -23 -2 -30 4 -6 193 -100 421 -207 228 -108
429 -207 447 -221 73 -55 133 -184 133 -283 0 -101 -52 -213 -130 -284 -33
-29 -40 -42 -40 -71 0 -20 4 -36 9 -36 18 0 96 66 137 117 67 82 88 148 88
273 0 85 -4 115 -22 160 -28 71 -85 145 -146 192 -54 40 -833 408 -866 408
-10 0 -24 -8 -29 -18z"/>
<path d="M3312 2678 c-19 -25 -142 -299 -161 -363 -29 -93 -44 -235 -36 -329
14 -163 91 -353 195 -483 117 -146 317 -270 498 -308 32 -7 32 -6 32 32 0 39
0 40 -52 51 -94 22 -246 104 -326 178 -91 83 -142 151 -193 257 -61 130 -74
190 -74 357 0 175 7 200 111 428 60 131 73 166 63 178 -14 17 -43 18 -57 2z"/>
<path d="M3447 2623 c-24 -40 -140 -304 -156 -358 -116 -374 111 -796 489
-911 61 -19 60 -19 60 25 l0 39 -64 22 c-113 37 -233 126 -309 229 -83 113
-127 247 -127 392 0 118 19 194 87 344 87 192 88 192 73 210 -13 16 -46 20
-53 8z"/>
<path d="M3582 2557 c-19 -23 -117 -237 -143 -312 -19 -57 -24 -90 -24 -180 0
-124 12 -177 63 -280 59 -120 214 -252 340 -290 20 -6 22 -3 22 33 0 37 -2 40
-50 61 -125 57 -234 175 -281 306 -17 47 -22 82 -22 165 0 120 6 142 97 337
32 68 56 133 54 145 -4 27 -39 36 -56 15z"/>
<path d="M3719 2493 c-9 -10 -47 -85 -85 -168 l-69 -150 0 -116 c0 -113 1
-116 38 -191 26 -54 54 -91 93 -128 48 -43 120 -90 139 -90 3 0 5 17 5 38 0
33 -5 40 -50 70 -54 35 -100 91 -133 162 -16 35 -21 66 -21 140 l-1 95 74 158
c58 124 72 163 64 175 -14 24 -37 26 -54 5z"/>
<path d="M3891 1713 c0 -406 4 -812 7 -903 7 -160 8 -168 39 -231 18 -35 44
-75 57 -88 24 -23 27 -23 44 -7 28 24 72 111 88 170 11 41 14 208 14 868 l0
818 -105 49 c-58 27 -114 53 -125 56 -20 6 -20 0 -19 -732z"/>
</g>
</svg>
