<?xml version="1.0" standalone="no"?>
<!DOCTYPE svg PUBLIC "-//W3C//DTD SVG 20010904//EN"
 "http://www.w3.org/TR/2001/REC-SVG-20010904/DTD/svg10.dtd">
<svg version="1.0" xmlns="http://www.w3.org/2000/svg"
 width="400.000000pt" height="300.000000pt" viewBox="0 0 400.000000 300.000000"
 preserveAspectRatio="xMidYMid meet">
<metadata>
Created by potrace 1.16, written by Peter Selinger 2001-2019
</metadata>
<g transform="translate(0.000000,300.000000) scale(0.100000,-0.100000)"
fill="#000000" stroke="none">
<path d="M1805 2449 c-103 -13 -230 -75 -296 -146 -36 -38 -75 -116 -94 -188
-22 -85 -38 -304 -29 -405 4 -47 8 -263 8 -480 l1 -395 30 -59 c81 -161 259
-250 450 -226 164 21 267 86 349 224 39 65 79 176 74 203 -2 10 15 70 39 133
35 97 45 115 61 113 15 -2 26 10 43 45 13 26 28 52 34 58 6 6 26 57 45 113 25
75 31 104 22 113 -8 8 -3 26 19 69 49 99 60 157 50 275 -10 117 -34 181 -95
254 -104 123 -291 226 -505 279 -103 25 -136 29 -206 20z m207 -225 c117 -37
275 -115 330 -163 50 -45 88 -111 88 -155 0 -31 -24 -125 -45 -171 -7 -16 -18
-47 -25 -67 -10 -32 -16 -38 -39 -38 -25 0 -30 -7 -64 -100 -20 -55 -37 -110
-37 -122 0 -13 -5 -41 -11 -63 -9 -32 -9 -41 3 -49 12 -7 8 -29 -25 -135 -22
-69 -48 -134 -59 -144 -10 -10 -18 -23 -18 -30 0 -7 -13 -39 -28 -72 -55 -114
-151 -171 -280 -163 -121 6 -206 78 -203 170 1 23 3 284 5 578 2 359 7 546 14
568 16 49 95 136 144 160 61 30 146 28 250 -4z"/>
</g>
</svg>
