<?xml version="1.0" standalone="no"?>
<!DOCTYPE svg PUBLIC "-//W3C//DTD SVG 20010904//EN"
 "http://www.w3.org/TR/2001/REC-SVG-20010904/DTD/svg10.dtd">
<svg version="1.0" xmlns="http://www.w3.org/2000/svg"
 width="400.000000pt" height="300.000000pt" viewBox="0 0 400.000000 300.000000"
 preserveAspectRatio="xMidYMid meet">
<metadata>
Created by potrace 1.16, written by Peter Selinger 2001-2019
</metadata>
<g transform="translate(0.000000,300.000000) scale(0.100000,-0.100000)"
fill="#000000" stroke="none">
<path d="M1560 2607 c-56 -18 -171 -139 -210 -222 -62 -133 -74 -192 -74 -370
1 -141 4 -172 27 -260 47 -175 139 -341 269 -484 103 -114 142 -242 136 -448
-3 -112 -4 -115 -31 -139 -51 -43 -160 -29 -296 40 -41 21 -56 25 -67 15 -20
-16 -17 -38 9 -81 40 -65 98 -99 252 -147 147 -45 219 -54 379 -49 174 6 239
26 382 119 188 122 238 133 268 59 22 -56 20 -91 -9 -160 -26 -63 -25 -85 6
-95 31 -10 69 22 97 83 24 51 27 68 27 172 0 123 -16 194 -57 245 -45 57 -68
52 -203 -46 -140 -101 -208 -120 -263 -74 -39 33 -52 88 -51 222 0 148 7 163
109 246 269 217 338 336 348 592 7 208 -31 375 -129 566 -59 116 -104 170
-164 199 -43 21 -47 21 -70 6 -32 -21 -31 -34 4 -93 17 -26 33 -65 37 -85 6
-34 3 -41 -29 -73 -72 -72 -151 -47 -407 127 -149 101 -230 149 -247 147 -4
-1 -24 -6 -43 -12z m250 -324 c95 -31 202 -85 333 -168 175 -109 228 -167 247
-266 21 -112 -21 -228 -119 -324 -156 -153 -322 -216 -436 -166 -154 68 -280
236 -336 446 -30 115 -37 305 -14 374 21 64 66 118 109 130 44 14 128 4 216
-26z m195 -1516 c18 -15 28 -36 32 -64 5 -37 2 -45 -25 -73 -52 -52 -131 -39
-158 27 -18 42 -5 94 29 118 32 23 91 19 122 -8z"/>
</g>
</svg>
