<?xml version="1.0" standalone="no"?>
<!DOCTYPE svg PUBLIC "-//W3C//DTD SVG 20010904//EN"
 "http://www.w3.org/TR/2001/REC-SVG-20010904/DTD/svg10.dtd">
<svg version="1.0" xmlns="http://www.w3.org/2000/svg"
 width="400.000000pt" height="300.000000pt" viewBox="0 0 400.000000 300.000000"
 preserveAspectRatio="xMidYMid meet">
<metadata>
Created by potrace 1.16, written by Peter Selinger 2001-2019
</metadata>
<g transform="translate(0.000000,300.000000) scale(0.100000,-0.100000)"
fill="#000000" stroke="none">
<path d="M818 1820 c-84 -25 -194 -139 -259 -266 -41 -80 -44 -92 -44 -165 0
-90 15 -119 81 -156 105 -59 473 -70 749 -22 103 18 195 71 195 114 0 21 -87
20 -335 -6 -210 -22 -407 -22 -490 1 -84 23 -97 84 -39 188 47 86 81 130 128
163 27 20 43 26 55 20 14 -8 332 -79 423 -95 20 -4 50 -13 65 -21 17 -9 57
-15 101 -15 90 0 93 12 22 83 -41 41 -54 49 -77 44 -15 -3 -37 -1 -48 3 -12 5
-109 27 -216 50 -140 30 -204 48 -230 66 -38 26 -40 26 -81 14z"/>
<path d="M3110 1789 c-30 -10 -62 -28 -72 -39 -27 -33 -303 -78 -392 -63 -35
5 -40 3 -86 -46 -70 -72 -67 -81 24 -81 41 0 87 5 103 12 15 6 55 10 88 9 83
-3 198 21 306 64 84 34 92 35 114 21 68 -45 165 -210 165 -281 0 -39 -4 -46
-30 -60 -69 -36 -279 -36 -595 -1 -163 18 -265 20 -265 6 0 -25 36 -63 81 -86
161 -81 726 -93 872 -17 120 62 69 310 -102 486 -85 89 -129 104 -211 76z"/>
<path d="M1382 1542 c-9 -6 -12 -33 -10 -98 l3 -89 619 -3 c449 -1 623 1 632
9 18 15 19 160 2 177 -14 14 -1224 17 -1246 4z"/>
</g>
</svg>
