<?xml version="1.0" standalone="no"?>
<!DOCTYPE svg PUBLIC "-//W3C//DTD SVG 20010904//EN"
 "http://www.w3.org/TR/2001/REC-SVG-20010904/DTD/svg10.dtd">
<svg version="1.0" xmlns="http://www.w3.org/2000/svg"
 width="1968.000000pt" height="1968.000000pt" viewBox="0 0 1968.000000 1968.000000"
 preserveAspectRatio="xMidYMid meet">
<metadata>
Created by potrace 1.14, written by Peter Selinger 2001-2017
</metadata>
<g transform="translate(0.000000,1968.000000) scale(0.100000,-0.100000)"
fill="#000000" stroke="none">
<path d="M9088 19675 c-2 -1 -43 -6 -93 -10 -49 -3 -106 -8 -125 -11 -19 -2
-53 -6 -75 -9 -59 -6 -111 -14 -195 -30 -41 -8 -86 -17 -100 -19 -14 -3 -36
-8 -50 -11 -14 -3 -36 -8 -50 -11 -14 -3 -41 -9 -60 -14 -19 -5 -46 -11 -60
-14 -14 -3 -54 -12 -90 -21 -35 -9 -74 -18 -85 -20 -11 -2 -22 -4 -25 -5 -3
-1 -9 -3 -15 -5 -5 -1 -12 -3 -15 -4 -3 -2 -12 -4 -20 -6 -8 -1 -66 -15 -128
-30 -62 -15 -118 -28 -125 -29 -6 -2 -19 -6 -27 -9 -8 -4 -26 -8 -40 -11 -31
-6 -319 -80 -415 -107 -38 -11 -79 -22 -90 -24 -46 -11 -291 -79 -540 -151
-88 -25 -167 -48 -175 -49 -8 -2 -34 -10 -58 -19 -23 -8 -46 -15 -50 -16 -4 0
-34 -9 -67 -19 -33 -11 -107 -33 -165 -51 -58 -17 -115 -35 -128 -41 -13 -5
-28 -7 -33 -4 -5 4 -9 2 -9 -4 0 -25 184 -164 266 -202 40 -18 57 -20 103 -14
31 4 65 9 76 10 11 1 29 6 40 10 36 13 50 17 74 21 14 3 52 14 85 26 34 11 68
22 76 23 8 2 15 4 15 5 0 1 7 3 15 5 26 5 276 92 345 120 17 7 46 18 65 25 19
7 76 32 126 55 85 41 147 62 169 60 6 -1 39 -5 75 -10 36 -5 70 -10 75 -11 6
0 17 -3 25 -6 8 -3 42 -13 75 -23 148 -41 171 -47 185 -50 32 -8 208 -75 270
-102 87 -40 168 -93 221 -145 89 -87 96 -116 115 -478 2 -41 4 -86 3 -100 0
-14 -1 -29 0 -35 4 -126 11 -781 16 -1465 9 -1592 22 -3135 25 -3135 1 0 3
-90 5 -200 5 -251 13 -464 21 -535 4 -30 7 -60 7 -67 0 -8 363 -195 387 -198
6 -1 64 -28 197 -91 50 -24 94 -44 97 -44 2 0 37 -15 78 -34 40 -19 105 -48
145 -64 64 -27 72 -29 76 -13 5 21 0 1910 -8 2971 -3 410 -6 761 -6 780 0 19
0 51 1 70 0 19 -1 54 -2 78 -2 23 1 42 5 42 5 0 5 6 0 13 -11 19 -10 227 2
227 7 0 7 3 0 8 -7 4 -10 142 -10 389 0 211 -2 383 -5 383 -3 0 -5 272 -5 605
l0 604 97 103 c97 102 187 173 262 204 33 13 63 15 175 10 138 -6 195 -10 286
-22 28 -3 66 -7 85 -9 36 -4 102 -12 180 -21 25 -3 61 -7 80 -10 19 -3 54 -7
78 -10 24 -2 56 -6 70 -9 15 -3 43 -8 62 -10 51 -6 101 -13 135 -19 17 -2 50
-7 75 -10 25 -3 56 -8 70 -11 13 -2 40 -7 60 -9 94 -13 117 -17 137 -20 12 -3
43 -8 70 -12 26 -3 57 -8 68 -10 11 -2 40 -7 64 -10 25 -3 48 -7 51 -9 4 -2
33 -7 66 -10 32 -4 62 -9 65 -11 4 -2 58 -11 120 -20 255 -36 321 -35 454 4
117 34 175 35 210 2 13 -13 24 -25 23 -29 0 -3 0 -22 1 -42 2 -56 22 -60 191
-44 41 3 77 7 80 8 3 1 24 -2 46 -6 43 -7 62 -31 79 -100 10 -39 45 -50 125
-42 173 19 205 13 236 -46 24 -47 59 -59 165 -54 52 2 99 5 104 6 24 7 54 -15
70 -49 31 -70 36 -78 57 -91 11 -7 44 -15 72 -17 99 -7 132 -22 180 -79 20
-25 56 -56 79 -69 57 -34 184 -86 191 -78 3 3 6 87 6 186 -1 176 -2 181 -23
192 -12 6 -67 37 -122 69 -55 32 -125 71 -155 87 -30 17 -59 33 -65 38 -11 8
-128 71 -255 138 -47 24 -91 49 -97 54 -7 6 -13 8 -13 5 0 -5 -29 9 -105 51
-30 16 -275 132 -280 132 -2 0 -39 16 -82 36 -78 36 -422 184 -427 184 -2 0
-21 7 -42 16 -22 9 -41 16 -44 16 -3 0 -14 5 -25 11 -11 6 -23 12 -27 13 -5 1
-10 3 -13 4 -3 1 -8 3 -12 5 -5 1 -21 7 -38 14 -16 7 -64 26 -105 41 -41 15
-113 42 -160 60 -102 39 -615 210 -629 210 -5 0 -22 5 -38 12 -15 6 -37 13
-48 15 -11 2 -31 8 -45 13 -14 5 -34 11 -45 13 -11 2 -27 7 -35 10 -13 5 -74
22 -120 33 -8 2 -78 19 -155 38 -77 19 -152 37 -167 40 -16 4 -38 8 -50 11
-13 2 -35 6 -51 9 -15 3 -35 7 -45 10 -9 3 -33 7 -52 10 -19 3 -46 8 -60 10
-74 14 -88 17 -120 22 -19 2 -48 8 -65 11 -16 4 -33 6 -37 5 -4 -1 -30 3 -57
8 -28 5 -79 12 -113 16 -35 3 -74 8 -88 10 -14 3 -52 7 -85 9 -33 2 -85 7
-115 10 -30 4 -82 9 -115 11 -67 6 -712 13 -717 9z m686 -247 c22 -5 42 -11
45 -13 4 -5 -18 -40 -49 -75 -58 -67 -137 -156 -159 -179 -12 -14 -55 -62 -95
-105 -139 -155 -129 -147 -188 -141 -29 3 -82 8 -118 10 -129 8 -278 23 -313
31 -12 3 -37 7 -56 9 -19 2 -60 10 -90 16 -79 16 -70 14 -196 45 -33 8 -67 17
-75 18 -9 2 -52 18 -97 36 -93 35 -110 57 -71 90 20 18 181 101 233 121 52 21
143 51 165 55 14 2 36 9 50 14 25 9 118 28 162 34 13 2 39 6 58 10 39 7 101
13 240 22 52 4 96 7 97 8 9 7 423 2 457 -6z m671 -42 c48 -7 109 -17 125 -21
8 -3 32 -7 54 -11 21 -3 48 -8 60 -11 11 -2 30 -6 41 -8 46 -7 304 -77 355
-96 30 -11 80 -30 110 -41 59 -22 92 -36 180 -73 73 -31 94 -38 103 -37 4 1 7
-3 7 -8 0 -6 4 -10 10 -10 5 0 40 -14 77 -31 66 -30 113 -51 123 -54 15 -4
286 -140 290 -145 3 -3 20 -12 38 -19 17 -8 32 -17 32 -22 0 -5 3 -8 8 -7 10
3 81 -45 86 -59 5 -12 -30 -19 -59 -13 -5 1 -23 4 -40 6 -96 12 -128 17 -205
34 -83 18 -135 29 -175 35 -11 1 -36 6 -55 9 -31 6 -95 17 -177 31 -16 2 -39
7 -53 9 -14 3 -43 8 -65 11 -22 3 -51 7 -65 10 -31 5 -94 15 -140 21 -19 2
-46 6 -60 9 -14 3 -45 7 -70 10 -25 3 -56 7 -70 10 -27 5 -78 12 -150 20 -25
3 -56 7 -70 10 -26 5 -76 11 -150 20 -56 6 -108 13 -162 21 -24 4 -52 7 -63 9
-29 3 -159 19 -165 20 -3 1 -30 5 -60 9 -30 5 -64 10 -75 13 -11 2 -33 6 -50
8 -93 14 -101 19 -80 53 24 39 197 205 252 243 26 18 63 38 82 45 32 11 142
11 226 0z"/>
<path d="M8185 17350 c-27 -10 -111 -38 -185 -61 -133 -41 -285 -96 -347 -124
-17 -8 -34 -15 -37 -15 -28 0 -427 -204 -434 -222 -2 -4 -8 -8 -13 -8 -8 0
-149 -86 -184 -112 -5 -4 -64 -48 -130 -96 -66 -49 -134 -102 -152 -118 -17
-16 -48 -42 -68 -59 -86 -71 -315 -308 -315 -327 0 -6 -3 -8 -6 -5 -4 4 -23
-15 -42 -41 -20 -26 -39 -49 -42 -52 -22 -17 -240 -324 -240 -337 0 -3 -6 -14
-14 -22 -15 -17 -66 -105 -94 -161 -9 -19 -20 -37 -23 -40 -5 -5 -97 -191
-132 -270 -20 -43 -88 -211 -91 -225 -2 -5 -6 -19 -10 -30 -29 -77 -36 -97
-41 -117 -2 -13 -16 -61 -31 -108 -14 -47 -27 -93 -30 -102 -2 -10 -6 -28 -9
-40 -14 -56 -31 -167 -30 -186 1 -12 -1 -22 -4 -22 -3 0 -6 -19 -5 -42 0 -24
-2 -47 -4 -52 -23 -44 -21 -826 2 -966 3 -14 7 -52 11 -85 4 -33 13 -91 22
-130 8 -38 17 -79 19 -90 8 -47 10 -55 17 -61 4 -4 7 -15 7 -23 0 -41 118
-372 195 -546 121 -275 355 -655 497 -810 15 -16 28 -33 28 -36 0 -17 309
-336 401 -415 149 -126 324 -254 420 -307 120 -66 159 -87 216 -116 35 -17 64
-30 65 -29 2 2 18 -7 36 -20 17 -13 32 -20 32 -17 0 3 13 -3 29 -14 16 -12 36
-21 44 -21 9 0 17 -3 19 -7 2 -5 32 -22 68 -40 341 -167 874 -421 1099 -525
89 -41 205 -95 278 -129 35 -16 64 -29 65 -29 2 1 44 -19 95 -44 50 -25 94
-46 96 -46 5 0 69 -30 352 -166 55 -26 102 -48 105 -48 3 -1 32 -14 65 -30 33
-16 103 -49 155 -74 277 -131 652 -323 777 -399 39 -23 74 -43 77 -43 3 0 37
-23 76 -50 39 -28 72 -50 75 -50 5 0 133 -97 145 -110 3 -3 32 -27 65 -54 71
-59 295 -283 345 -345 19 -24 40 -48 45 -55 62 -70 209 -290 282 -421 30 -55
147 -290 171 -345 11 -25 28 -65 39 -90 11 -25 30 -74 43 -110 12 -36 26 -74
30 -85 16 -39 34 -100 32 -109 -2 -4 2 -14 9 -22 6 -7 8 -18 4 -24 -3 -5 -1
-10 5 -10 6 0 8 -4 5 -10 -3 -5 -3 -16 2 -22 4 -7 8 -17 9 -23 1 -5 4 -21 7
-35 19 -86 29 -139 32 -165 3 -16 7 -48 11 -70 4 -22 8 -53 9 -70 2 -16 6 -64
11 -105 4 -41 8 -181 8 -310 0 -206 -3 -288 -19 -442 -10 -93 -33 -237 -50
-312 -8 -34 -17 -73 -19 -87 -2 -13 -5 -24 -6 -24 -1 0 -3 -7 -5 -15 -26 -131
-170 -522 -199 -542 -6 -4 -7 -8 -2 -8 5 0 3 -7 -4 -15 -7 -8 -9 -15 -4 -15 5
0 4 -4 -2 -8 -6 -4 -28 -42 -50 -84 -21 -43 -42 -78 -46 -78 -4 0 -8 -5 -8
-11 0 -6 -20 -42 -45 -80 -25 -38 -45 -72 -45 -75 0 -3 -6 -11 -12 -18 -7 -8
-31 -39 -53 -71 -38 -54 -157 -203 -220 -275 -90 -103 -306 -311 -396 -382
-19 -14 -44 -35 -56 -45 -12 -10 -32 -27 -45 -38 -12 -11 -26 -19 -30 -17 -5
1 -8 -2 -8 -7 0 -12 -205 -154 -270 -186 -30 -15 -56 -31 -58 -36 -2 -5 -8 -9
-14 -9 -5 0 -32 -11 -59 -25 -27 -13 -49 -21 -49 -17 0 4 -4 1 -9 -6 -4 -7
-14 -14 -22 -16 -8 -1 -32 -12 -54 -23 -37 -19 -316 -139 -345 -148 -63 -19
-125 -38 -134 -39 -41 -6 -59 -65 -57 -189 1 -95 11 -127 39 -127 22 0 159 35
222 57 25 8 50 16 55 17 13 4 28 10 143 57 50 21 92 35 92 31 0 -4 4 -2 8 3 7
10 180 97 185 92 1 -1 16 8 34 21 17 12 34 22 37 22 3 0 35 18 71 40 36 22 67
40 69 40 2 0 53 32 112 72 174 114 310 219 473 363 59 52 227 223 278 282 26
31 60 70 76 87 15 17 32 37 37 43 8 10 141 188 178 238 53 73 210 340 218 371
3 13 9 24 13 24 6 0 32 53 33 67 0 4 3 13 8 18 9 10 88 189 96 215 2 8 26 80
54 160 27 80 51 157 54 170 2 14 7 32 10 40 3 8 8 26 10 40 8 39 15 70 20 88
3 9 8 31 11 47 2 17 7 40 9 51 2 12 7 37 10 55 3 19 8 45 11 58 2 13 7 49 11
80 3 31 7 67 9 81 23 181 33 468 21 595 -3 22 -7 76 -10 120 -3 44 -8 91 -10
105 -4 22 -10 65 -22 153 -2 15 -6 39 -10 55 -11 50 -16 77 -19 97 -1 11 -5
27 -8 35 -3 8 -15 56 -27 105 -26 107 -96 325 -116 363 -8 15 -14 32 -14 38 0
6 -9 32 -20 58 -12 25 -21 48 -21 51 0 2 -16 37 -35 77 -20 40 -50 102 -67
138 -18 36 -34 67 -38 70 -3 3 -9 13 -12 24 -15 38 -161 275 -230 372 -40 55
-108 145 -152 200 -81 101 -365 392 -444 454 -24 19 -48 40 -55 45 -6 6 -31
26 -56 45 -25 19 -47 37 -50 40 -3 3 -12 10 -21 15 -9 6 -54 36 -100 68 -80
57 -136 89 -299 173 -41 22 -76 42 -78 47 -2 4 -9 7 -15 7 -15 0 -141 63 -145
73 -2 4 -7 7 -12 7 -5 0 -111 50 -237 112 -125 62 -230 113 -233 113 -3 1 -86
41 -185 89 -255 125 -309 150 -314 147 -2 -1 -7 1 -10 6 -5 7 -55 34 -71 38
-3 0 -36 16 -75 34 -38 19 -113 54 -165 78 -52 25 -131 62 -175 83 -220 104
-260 123 -265 123 -3 0 -40 17 -82 39 -42 21 -82 38 -87 38 -6 0 -11 5 -11 10
0 6 -3 9 -7 8 -5 -1 -33 9 -63 24 -30 14 -93 44 -140 66 -47 22 -161 77 -255
123 -93 45 -172 83 -175 84 -19 5 -86 42 -92 50 -4 6 -8 7 -8 3 0 -4 -74 30
-165 76 -91 46 -165 81 -165 79 0 -3 -6 -1 -13 5 -7 6 -51 30 -97 54 -91 47
-182 98 -190 108 -3 3 -25 18 -50 34 -46 30 -179 129 -216 162 -12 11 -48 42
-80 69 -132 113 -272 265 -437 475 -7 8 -40 56 -73 105 -56 82 -90 137 -147
235 -25 43 -141 273 -142 280 0 6 -23 62 -55 135 -10 22 -24 60 -31 85 -7 25
-16 50 -19 55 -4 6 -11 24 -15 40 -5 17 -10 35 -11 40 -42 134 -106 408 -118
510 -2 22 -5 40 -6 40 -1 0 -3 16 -5 35 -2 19 -7 71 -11 115 -16 153 -8 613
11 710 4 17 8 44 10 60 2 17 4 30 5 30 1 0 3 16 6 35 2 19 13 78 25 130 11 52
22 104 23 115 2 11 6 27 9 35 3 8 14 44 23 80 9 36 22 71 27 78 5 7 7 15 4 19
-4 3 -3 11 2 17 4 6 16 36 26 66 10 30 20 60 24 65 3 6 6 15 7 21 1 5 13 36
28 67 14 32 26 60 26 63 0 10 121 248 156 307 151 254 311 458 514 657 92 90
199 187 242 220 11 8 28 23 36 33 9 9 22 17 29 17 7 0 13 4 13 9 0 4 19 21 41
37 23 16 54 38 69 49 76 55 122 85 131 85 5 0 9 4 9 8 0 5 12 15 28 23 15 8
29 16 32 19 9 10 105 64 106 59 0 -2 8 4 18 14 10 9 23 17 31 17 7 0 15 3 17
8 3 7 186 104 190 101 2 -1 22 8 45 20 23 11 49 21 58 21 8 0 15 5 15 10 0 6
6 10 14 10 8 0 35 9 61 20 25 11 58 22 72 24 13 3 31 10 39 17 8 6 14 9 14 5
0 -3 15 0 33 7 17 8 57 20 87 27 97 23 130 40 145 76 17 41 14 228 -4 262 -6
12 -13 21 -14 21 -1 -1 -24 -9 -52 -19z"/>
<path d="M9749 17347 c-3 -38 13 -214 23 -259 8 -36 53 -68 137 -98 47 -18 94
-33 104 -35 27 -6 204 -73 267 -102 134 -61 286 -139 300 -153 3 -3 25 -16 50
-29 78 -42 310 -203 403 -281 52 -43 67 -55 121 -103 55 -49 234 -225 284
-281 13 -14 55 -65 93 -113 39 -48 75 -95 82 -103 25 -31 127 -198 127 -208 0
-6 4 -12 9 -14 5 -1 35 -52 66 -113 31 -60 61 -115 66 -121 5 -7 12 -22 14
-34 2 -12 8 -27 13 -34 15 -18 102 -218 102 -233 0 -7 5 -13 12 -13 6 0 9 -3
5 -6 -3 -4 0 -18 7 -33 22 -42 103 -291 115 -351 6 -30 14 -66 16 -80 3 -14 8
-48 11 -76 2 -28 6 -61 9 -72 19 -100 27 -741 11 -912 -4 -41 -8 -93 -10 -115
-2 -22 -6 -53 -9 -70 -3 -16 -9 -50 -12 -75 -3 -25 -7 -52 -9 -60 -18 -87 -21
-100 -28 -120 -3 -8 -11 -33 -18 -55 -23 -74 -82 -230 -91 -241 -5 -7 -9 -16
-8 -20 1 -5 -3 -20 -8 -34 -6 -14 -30 -72 -53 -130 -24 -58 -47 -109 -51 -115
-5 -5 -9 -15 -9 -21 0 -7 -16 -47 -35 -88 -19 -42 -35 -78 -35 -80 0 -4 -38
-89 -101 -224 -16 -35 -29 -65 -29 -68 0 -3 -14 -33 -31 -67 -17 -34 -31 -64
-31 -67 -1 -8 -15 -43 -47 -120 -17 -38 -28 -70 -24 -70 3 0 1 -6 -4 -12 -14
-17 -33 -73 -54 -161 -12 -44 -11 -49 11 -72 20 -22 64 -37 110 -40 30 -1 93
26 113 48 31 35 313 619 309 640 -1 4 3 7 8 7 6 0 10 4 10 10 0 5 15 40 32 77
18 38 33 70 33 73 0 3 13 31 28 64 15 32 27 60 27 62 0 2 16 38 35 80 19 41
35 81 35 88 0 6 4 16 8 21 5 6 19 37 32 70 13 33 29 74 36 90 16 36 94 267 99
292 2 10 8 29 13 43 5 14 10 28 10 33 1 7 13 71 28 137 13 65 32 212 40 325
13 179 5 765 -12 880 -2 17 -7 50 -9 74 -3 25 -15 83 -26 129 -12 47 -23 92
-24 101 -2 9 -4 16 -5 16 -1 0 -3 7 -5 15 -2 13 -48 163 -59 195 -2 6 -4 12
-4 15 0 3 -10 30 -22 60 -12 30 -23 60 -24 65 -1 6 -10 28 -20 50 -10 22 -27
63 -38 90 -22 56 -178 374 -205 420 -10 16 -49 81 -87 145 -37 63 -72 117 -77
118 -5 2 -9 8 -9 13 0 11 -85 131 -144 204 -23 27 -50 61 -61 74 -26 33 -272
279 -310 311 -17 14 -55 45 -85 70 -30 25 -57 47 -60 50 -16 17 -168 127 -182
133 -10 3 -18 11 -18 17 0 5 -4 10 -9 10 -4 0 -50 28 -102 62 -52 34 -96 63
-99 63 -3 0 -17 8 -32 18 -55 34 -73 44 -83 47 -5 1 -22 10 -36 21 -26 18
-283 149 -293 149 -3 0 -40 16 -82 35 -41 19 -80 35 -85 35 -5 0 -17 4 -27 10
-25 13 -290 99 -324 104 -7 1 -19 5 -25 9 -7 5 -13 6 -13 2 0 -3 -16 1 -35 9
-26 11 -35 12 -36 3z"/>
<path d="M8100 16701 c-74 -27 -144 -52 -155 -56 -102 -41 -194 -79 -215 -90
-14 -7 -50 -25 -80 -41 -30 -15 -70 -36 -87 -46 -18 -10 -50 -27 -70 -39 -21
-11 -87 -54 -148 -94 -339 -227 -623 -521 -840 -870 -62 -100 -235 -431 -239
-459 -1 -6 -6 -18 -11 -26 -14 -22 -111 -287 -120 -330 -2 -8 -9 -37 -15 -65
-19 -81 -20 -89 -25 -120 -3 -16 -9 -45 -14 -63 -7 -23 -7 -30 1 -26 6 4 8 3
5 -3 -21 -33 -31 -207 -30 -503 1 -277 6 -385 28 -515 6 -41 7 -46 24 -125 22
-102 104 -356 142 -437 10 -24 19 -46 19 -49 0 -3 25 -58 57 -122 31 -65 57
-119 57 -122 1 -3 9 -16 18 -30 9 -14 24 -42 34 -62 10 -21 21 -38 26 -38 4 0
8 -5 8 -10 0 -8 50 -91 82 -135 160 -221 187 -253 348 -415 139 -139 227 -220
241 -220 4 0 9 -4 11 -9 5 -15 226 -169 317 -222 47 -27 93 -54 101 -59 18
-11 403 -204 410 -205 3 -1 52 -24 110 -52 119 -57 253 -121 385 -183 50 -24
124 -59 165 -78 41 -20 77 -36 80 -37 3 -1 37 -16 75 -34 138 -66 277 -131
280 -131 1 0 54 -24 117 -54 136 -65 260 -122 308 -143 19 -8 42 -19 51 -23
15 -8 261 -121 429 -197 30 -13 93 -43 140 -65 47 -22 90 -41 95 -42 6 -2 36
-15 68 -29 158 -74 368 -167 515 -228 86 -36 94 -38 120 -25 55 29 103 107 95
156 -5 31 -46 75 -87 91 -17 7 -33 16 -36 19 -6 6 -426 215 -625 310 -473 226
-503 240 -515 240 -5 0 -10 5 -10 10 0 6 -6 10 -13 10 -8 0 -46 16 -85 35 -40
19 -74 35 -77 35 -2 1 -40 18 -82 39 -43 21 -107 52 -143 69 -144 66 -245 113
-247 113 -2 0 -29 13 -62 29 -33 17 -65 30 -70 30 -6 0 -11 5 -11 11 0 5 -4 7
-10 4 -5 -3 -10 -1 -10 4 0 6 -3 10 -7 9 -5 -1 -42 14 -83 34 -106 50 -334
160 -477 229 -67 32 -127 59 -132 59 -6 0 -11 5 -11 10 0 6 -5 10 -12 10 -16
0 -261 122 -270 135 -4 6 -8 7 -8 2 0 -4 -75 31 -167 79 -154 79 -331 190
-393 246 -14 13 -46 40 -71 60 -93 74 -342 335 -363 379 -5 10 -12 19 -16 19
-4 0 -22 21 -40 48 -19 26 -36 49 -39 52 -16 14 -91 130 -91 139 0 6 -3 11 -8
11 -4 0 -19 21 -32 47 -14 26 -31 54 -37 61 -7 7 -13 18 -13 24 0 6 -7 19 -16
29 -8 9 -17 23 -18 31 -1 7 -9 27 -18 43 -49 92 -136 327 -154 415 -3 13 -10
30 -16 37 -6 7 -8 13 -5 13 3 0 -3 32 -13 70 -10 39 -18 74 -19 78 -3 38 -14
100 -18 112 -3 8 -7 31 -8 50 -2 19 -4 35 -4 35 -1 0 -4 23 -6 50 -3 28 -7 68
-10 90 -6 49 -6 343 0 405 16 157 24 214 40 295 8 39 17 81 19 95 10 49 38
147 69 240 17 52 32 97 32 100 1 3 9 22 18 44 9 21 17 40 17 41 0 11 95 203
108 218 8 9 12 17 7 17 -4 0 4 15 19 34 14 19 26 38 26 42 0 7 102 163 125
191 6 7 19 24 30 39 11 14 29 37 40 49 11 13 31 39 45 56 64 83 254 272 365
364 33 28 66 55 73 62 6 6 49 38 95 70 45 31 84 61 85 65 2 4 8 8 12 8 5 0 37
18 70 39 91 59 280 150 384 185 146 50 208 92 223 154 9 33 8 125 -1 192 -2
14 -4 33 -5 43 0 9 -4 17 -8 16 -5 0 -69 -22 -143 -48z"/>
<path d="M9759 16699 c-10 -19 -13 -194 -5 -237 9 -42 48 -67 171 -111 101
-37 251 -106 330 -154 114 -68 181 -111 183 -118 2 -5 8 -9 14 -9 11 0 109
-70 223 -159 93 -73 304 -287 386 -392 75 -95 209 -292 209 -307 0 -6 4 -12 8
-14 10 -4 112 -203 144 -283 37 -89 41 -100 43 -105 1 -3 14 -43 29 -90 15
-47 29 -89 30 -95 2 -5 8 -28 14 -50 6 -22 14 -52 17 -67 3 -16 7 -39 10 -53
3 -14 7 -36 10 -50 11 -53 14 -72 19 -120 3 -27 8 -61 11 -75 22 -110 22 -574
0 -680 -3 -14 -7 -43 -10 -65 -7 -68 -13 -99 -25 -145 -7 -25 -13 -52 -15 -60
-22 -111 -128 -412 -218 -620 -5 -14 -11 -27 -12 -30 -1 -3 -16 -36 -33 -74
-18 -38 -32 -70 -32 -72 0 -1 -15 -35 -34 -76 -57 -124 -167 -380 -188 -438
-19 -54 -24 -67 -48 -125 -7 -16 -14 -40 -16 -52 -2 -12 -8 -32 -13 -45 -20
-55 25 -98 107 -103 63 -3 95 13 136 69 42 56 275 523 274 550 0 5 4 12 9 15
5 3 30 56 57 116 45 101 77 173 112 250 24 54 112 279 128 330 9 28 21 59 26
70 5 11 18 54 30 95 12 41 23 82 25 90 7 24 23 93 29 120 3 14 8 36 11 50 3
14 8 41 11 60 3 19 7 47 10 62 32 197 23 649 -17 858 -5 30 -12 69 -15 85 -5
38 -9 56 -29 129 -8 33 -17 69 -20 80 -2 12 -4 22 -6 24 -1 1 -2 5 -3 10 -1 4
-13 41 -26 82 -13 41 -24 77 -25 80 -1 3 -7 19 -14 35 -7 17 -19 46 -26 65 -7
19 -30 71 -50 115 -21 44 -39 85 -41 90 -11 46 -186 329 -286 462 -115 152
-163 208 -328 373 -182 181 -298 281 -398 342 -20 12 -39 24 -42 27 -8 9 -64
39 -255 135 -377 191 -559 255 -586 205z"/>
<path d="M9763 16107 c-17 -37 -14 -245 3 -279 14 -28 80 -76 97 -70 4 1 7 -3
7 -10 0 -6 3 -9 6 -6 10 10 241 -128 282 -169 7 -7 17 -13 22 -13 5 0 15 -6
22 -13 7 -7 47 -39 88 -72 100 -79 243 -213 289 -272 55 -70 111 -149 123
-173 7 -14 15 -27 18 -30 27 -27 154 -287 205 -420 39 -102 98 -307 110 -385
4 -22 8 -51 11 -65 17 -100 22 -170 19 -270 -3 -105 -7 -149 -21 -220 -3 -14
-7 -34 -8 -45 -2 -11 -4 -20 -6 -20 -1 0 -3 -9 -4 -20 -2 -16 -9 -48 -21 -95
-18 -73 -108 -341 -133 -400 -9 -19 -17 -39 -18 -45 -3 -14 -81 -200 -107
-255 -12 -25 -22 -47 -22 -50 -3 -10 -24 -56 -60 -135 -67 -143 -88 -190 -90
-195 -1 -3 -9 -23 -19 -45 -114 -259 -148 -374 -123 -420 21 -41 64 -65 113
-65 73 0 155 116 319 450 7 14 19 40 26 58 8 17 17 32 21 32 5 0 8 9 8 19 0
11 7 27 16 35 8 9 13 16 9 16 -3 0 5 19 19 43 14 23 26 47 27 52 2 6 22 51 45
100 90 194 159 365 194 485 13 41 25 80 29 85 3 6 6 15 7 20 1 6 5 26 9 45 3
19 11 55 16 80 15 63 16 68 24 130 11 81 16 134 20 235 2 50 4 92 5 95 1 3 1
43 1 90 0 149 -17 354 -37 440 -3 14 -10 43 -14 65 -10 45 -57 212 -67 235 -3
8 -7 17 -7 20 -7 34 -123 295 -148 332 -10 14 -18 29 -18 33 0 9 -124 189
-159 231 -14 17 -44 53 -66 80 -74 89 -187 206 -297 306 -84 76 -99 88 -109
88 -5 0 -7 5 -4 10 3 6 2 10 -4 10 -5 0 -48 29 -94 64 -47 35 -117 83 -157
106 -69 40 -259 133 -330 160 -19 7 -40 17 -46 22 -7 5 -15 -1 -21 -15z"/>
<path d="M8170 16108 c-14 -6 -44 -20 -67 -30 -23 -11 -44 -18 -46 -16 -2 2
-10 -2 -18 -8 -8 -6 -63 -38 -124 -69 -130 -69 -339 -203 -395 -255 -9 -8 -31
-26 -49 -40 -109 -86 -296 -290 -403 -440 -56 -79 -149 -230 -142 -230 3 0 -4
-13 -15 -28 -11 -16 -21 -35 -23 -43 -2 -8 -6 -16 -9 -19 -14 -12 -118 -273
-134 -336 -3 -11 -17 -66 -32 -124 -14 -58 -28 -112 -31 -120 -2 -8 -6 -26 -8
-39 -2 -14 -8 -55 -13 -92 -39 -250 -30 -566 23 -821 3 -16 8 -38 10 -50 27
-136 131 -424 199 -548 10 -19 29 -53 40 -75 38 -69 152 -237 217 -320 73 -93
286 -307 354 -355 25 -18 46 -37 46 -42 0 -5 4 -7 8 -4 5 3 15 -4 22 -15 8
-10 20 -19 27 -19 7 0 13 -3 13 -7 0 -5 17 -19 38 -33 20 -14 39 -27 42 -31 3
-3 12 -9 20 -12 8 -4 29 -15 45 -25 17 -10 59 -34 95 -54 36 -19 76 -41 90
-49 14 -7 27 -14 30 -14 5 -1 193 -92 323 -156 31 -15 60 -28 62 -29 5 0 189
-86 269 -126 28 -13 56 -24 63 -24 7 0 13 -4 13 -10 0 -5 3 -9 8 -8 4 1 39
-13 77 -31 39 -18 95 -44 125 -58 30 -14 89 -41 130 -60 152 -72 201 -93 210
-93 6 0 10 -4 10 -10 0 -5 5 -10 11 -10 11 0 52 -18 189 -83 47 -22 144 -67
215 -99 166 -77 231 -107 330 -153 44 -20 118 -54 165 -75 47 -21 129 -58 183
-84 55 -25 100 -46 102 -46 4 0 129 -56 156 -70 9 -5 56 -25 105 -45 49 -20
109 -46 134 -57 111 -51 265 -99 302 -95 71 8 109 49 101 111 -5 49 -33 78
-119 123 -43 22 -83 45 -89 50 -5 5 -13 10 -18 11 -4 1 -152 73 -330 161 -327
161 -498 244 -507 246 -3 0 -39 17 -80 37 -189 90 -319 152 -365 173 -27 13
-93 43 -145 68 -180 85 -275 129 -350 164 -41 19 -111 52 -155 73 -44 20 -116
54 -160 75 -757 356 -1194 595 -1363 749 -56 51 -110 106 -142 145 -19 24 -40
48 -46 55 -54 58 -211 310 -262 421 -18 39 -39 83 -47 98 -8 16 -15 35 -15 43
0 8 -5 14 -12 14 -6 0 -9 3 -6 6 4 3 -7 43 -22 89 -16 45 -31 93 -34 106 -2
13 -11 51 -19 84 -8 33 -15 67 -16 75 0 8 -5 39 -11 69 -6 29 -9 59 -6 67 3 8
2 14 -2 14 -9 0 -10 12 -13 185 -2 126 2 209 17 330 4 32 25 137 49 245 11 49
82 253 116 331 51 118 129 239 244 377 104 125 327 343 437 424 20 15 42 34
50 41 7 7 31 24 53 37 22 13 42 27 45 31 3 4 64 37 135 74 144 74 165 90 182
135 14 37 11 194 -5 233 -12 29 -38 34 -82 15z"/>
<path d="M8200 15471 c0 -7 -28 -19 -47 -19 -3 0 -9 -4 -12 -9 -3 -5 -43 -31
-89 -57 -46 -27 -89 -54 -95 -60 -7 -6 -37 -30 -67 -53 -89 -68 -235 -215
-276 -278 -10 -16 -30 -41 -43 -55 -13 -14 -27 -34 -32 -45 -11 -24 -32 -58
-40 -65 -12 -10 -96 -176 -126 -250 -42 -105 -46 -114 -48 -125 -2 -5 -12 -41
-23 -80 -52 -181 -66 -290 -65 -505 1 -197 13 -307 44 -406 5 -17 12 -42 14
-55 20 -100 98 -299 157 -398 21 -34 38 -67 38 -72 0 -5 5 -9 10 -9 6 0 10 -7
10 -15 0 -8 3 -15 8 -15 4 0 14 -11 22 -24 48 -78 368 -405 397 -406 5 -1 24
-14 43 -30 19 -17 39 -30 44 -30 5 0 17 -6 25 -14 37 -32 481 -261 481 -248 0
4 4 2 8 -4 4 -5 30 -21 57 -34 28 -12 97 -45 155 -72 58 -28 137 -65 175 -83
39 -18 117 -55 175 -83 58 -27 130 -61 160 -75 111 -50 197 -90 275 -127 44
-21 109 -51 145 -68 36 -16 133 -61 215 -100 138 -64 278 -128 430 -197 33
-15 83 -38 110 -50 160 -73 187 -85 196 -85 5 0 9 -4 9 -8 0 -5 6 -9 14 -9 8
0 38 -11 67 -25 30 -14 104 -47 164 -73 61 -26 128 -55 150 -65 22 -10 65 -28
95 -40 30 -12 69 -28 85 -35 115 -47 155 -59 189 -58 101 2 129 142 43 219
-30 27 -103 65 -332 174 -55 26 -152 73 -216 103 -64 31 -150 71 -190 90 -41
19 -123 58 -184 87 -124 59 -225 105 -240 110 -5 2 -44 20 -85 40 -41 21 -102
50 -135 65 -33 15 -94 43 -135 62 -120 57 -185 87 -190 88 -3 1 -39 17 -80 37
-41 20 -120 57 -175 83 -55 26 -161 76 -235 112 -74 35 -189 90 -255 121 -365
173 -843 419 -903 464 -118 89 -255 239 -322 353 -13 22 -27 42 -31 45 -3 3
-33 60 -66 127 -54 108 -112 266 -128 348 -4 17 -8 39 -11 50 -16 79 -19 116
-19 240 0 77 4 165 9 195 5 30 10 64 11 75 2 11 4 20 5 20 1 0 3 7 5 15 2 8 9
33 15 55 6 22 12 47 14 55 17 65 122 302 137 308 5 2 9 8 9 14 0 14 102 168
112 168 4 0 8 4 8 10 0 24 150 176 243 246 89 68 150 133 169 179 18 46 21
164 6 225 -9 33 -15 40 -34 40 -13 0 -24 -4 -24 -9z"/>
<path d="M9748 15354 c1 -70 6 -143 12 -164 12 -45 48 -85 125 -138 113 -77
227 -201 318 -345 21 -31 37 -61 37 -66 0 -5 7 -14 15 -21 8 -7 13 -16 10 -20
-3 -5 -2 -11 3 -14 15 -9 122 -236 122 -258 0 -8 5 -19 12 -26 7 -7 9 -12 5
-12 -4 0 -3 -9 4 -21 6 -12 13 -35 15 -52 2 -18 8 -61 12 -96 13 -90 8 -610
-5 -641 -6 -14 -32 -70 -58 -125 -26 -55 -61 -129 -77 -165 -16 -36 -41 -87
-54 -113 -13 -27 -24 -55 -24 -62 0 -7 -3 -15 -7 -17 -11 -4 -53 -95 -53 -113
0 -8 -4 -15 -10 -15 -5 0 -10 -4 -10 -9 0 -5 -17 -44 -37 -88 -21 -43 -38 -80
-38 -83 0 -3 -11 -27 -24 -55 -51 -110 -115 -264 -141 -340 -22 -64 -25 -84
-17 -105 12 -28 53 -72 82 -87 20 -11 87 -9 105 2 12 8 67 95 95 150 11 22 24
43 28 46 5 3 8 8 7 10 -2 4 203 430 221 459 5 8 12 22 16 30 3 8 18 40 31 70
14 30 26 57 27 60 1 3 15 32 30 65 16 33 29 62 30 65 0 3 12 28 25 55 13 28
24 52 25 55 1 3 9 22 18 44 9 21 17 42 17 47 0 5 4 17 9 27 20 39 32 68 35 87
2 11 9 31 14 45 5 14 13 48 16 75 4 28 9 64 12 82 13 83 19 422 9 513 -3 25
-7 65 -9 90 -2 25 -12 81 -21 125 -10 44 -18 85 -19 90 -1 6 -4 15 -7 20 -6
10 -18 52 -19 67 0 5 -11 33 -25 64 -14 31 -25 62 -25 68 0 7 -5 17 -12 24 -6
6 -13 18 -14 27 -1 8 -12 28 -23 44 -12 16 -21 33 -21 37 0 33 -190 275 -301
384 -122 120 -266 240 -288 240 -6 0 -11 4 -11 8 0 4 -30 23 -67 42 -38 19
-70 37 -73 41 -3 4 -16 10 -30 14 l-25 6 3 -127z"/>
<path d="M7021 10474 c-35 -15 -54 -32 -60 -54 -10 -41 -11 -102 -1 -119 10
-20 123 -89 255 -156 44 -22 82 -43 83 -47 2 -5 7 -8 12 -8 4 0 135 -62 291
-139 156 -76 313 -152 349 -169 72 -33 265 -124 376 -178 39 -19 77 -34 83
-34 6 0 11 -4 11 -10 0 -5 3 -9 8 -8 7 2 28 -8 222 -99 52 -25 172 -81 265
-125 177 -83 224 -105 440 -209 72 -34 184 -87 250 -119 66 -31 190 -91 276
-134 86 -42 161 -76 167 -76 6 0 12 -3 14 -7 2 -5 62 -37 133 -72 72 -35 144
-74 160 -85 17 -12 30 -19 30 -16 0 7 176 -110 201 -135 12 -11 37 -31 55 -45
42 -31 291 -279 341 -340 128 -155 235 -302 288 -395 58 -100 70 -123 95 -175
41 -85 125 -291 125 -306 0 -8 4 -22 10 -32 19 -35 76 -257 86 -336 3 -23 8
-52 10 -66 5 -27 11 -74 19 -160 13 -149 3 -448 -21 -605 -4 -27 -8 -65 -8
-82 0 -18 -3 -33 -6 -33 -4 0 -7 -6 -7 -12 -1 -26 -14 -94 -34 -172 -12 -45
-22 -88 -24 -96 -5 -23 -44 -143 -54 -165 -4 -11 -18 -47 -31 -80 -29 -79
-151 -329 -162 -333 -4 -2 -8 -8 -8 -14 0 -17 -141 -227 -215 -318 -84 -106
-247 -272 -340 -348 -38 -31 -72 -59 -75 -62 -3 -3 -34 -27 -70 -53 -36 -26
-69 -51 -75 -55 -48 -37 -246 -148 -410 -231 -110 -55 -218 -116 -240 -135
-22 -20 -36 -36 -31 -36 5 0 4 -6 -1 -12 -8 -11 -10 -136 -3 -145 2 -2 3 -6 4
-10 12 -50 56 -82 87 -63 7 5 16 7 20 4 15 -9 136 41 361 150 183 88 417 224
426 248 2 4 10 8 18 8 8 0 14 4 14 8 0 4 13 16 30 25 16 10 35 23 42 30 7 7
42 36 78 66 84 69 208 189 290 281 36 40 70 78 76 84 6 6 52 67 102 136 51 69
97 130 102 137 6 7 10 14 10 16 0 3 28 51 63 108 49 82 176 324 182 349 3 9
16 44 26 65 27 62 69 178 69 190 0 8 5 15 12 15 6 0 9 3 5 6 -3 3 1 23 8 45 8
22 14 41 14 44 0 3 7 29 16 58 8 29 17 71 19 93 3 21 7 46 10 54 8 22 15 67
22 140 4 36 10 75 15 88 5 14 5 22 -2 22 -6 0 -8 4 -5 8 10 17 18 151 18 317
0 179 -7 290 -28 440 -4 28 -8 57 -9 65 -6 45 -21 130 -25 140 -1 3 -2 8 -2
11 1 4 -3 22 -9 40 -11 36 -16 58 -23 88 -12 52 -93 278 -133 371 -82 188
-261 507 -315 562 -10 10 -18 22 -18 26 0 5 -8 17 -18 28 -10 10 -31 37 -47
59 -65 87 -141 171 -261 290 -255 252 -437 376 -829 569 -274 135 -426 209
-435 211 -3 1 -44 20 -92 43 -49 23 -127 60 -175 83 -49 22 -119 56 -158 74
-152 71 -316 148 -440 205 -33 15 -90 42 -127 59 -118 54 -201 93 -255 117
-53 24 -114 52 -228 104 -33 15 -87 40 -120 55 -33 15 -93 42 -133 61 -40 19
-74 34 -76 34 -2 0 -42 17 -88 39 -45 21 -166 75 -268 121 -102 45 -189 86
-194 90 -5 5 -14 6 -21 4 -6 -3 -18 2 -25 11 -7 8 -18 15 -24 15 -6 0 -54 19
-106 41 -163 71 -191 79 -229 63z"/>
<path d="M6771 9923 c-70 -69 -75 -105 -23 -161 31 -33 180 -132 199 -132 6 0
13 -3 15 -7 2 -5 53 -33 113 -63 61 -30 113 -59 117 -65 4 -5 8 -6 8 -1 0 5 8
2 18 -6 14 -13 40 -26 62 -33 3 -1 68 -32 145 -69 77 -38 183 -88 235 -113 52
-25 131 -62 175 -83 176 -84 220 -104 228 -102 4 1 7 -3 7 -8 0 -6 4 -10 10
-10 10 0 88 -35 235 -105 50 -23 119 -56 155 -73 64 -29 286 -133 485 -226 55
-26 107 -51 115 -57 8 -5 22 -12 30 -15 97 -40 754 -366 758 -375 2 -5 9 -9
17 -9 11 0 47 -19 234 -122 182 -101 323 -227 506 -451 83 -101 223 -351 287
-511 27 -69 87 -252 93 -287 3 -15 12 -54 20 -86 8 -32 17 -78 19 -103 3 -25
5 -45 6 -45 7 0 14 -127 15 -250 0 -139 -6 -226 -20 -300 -3 -16 -8 -39 -10
-50 -20 -101 -110 -354 -181 -503 -24 -52 -44 -98 -44 -103 0 -5 -4 -9 -10 -9
-5 0 -9 -3 -8 -7 1 -5 -5 -19 -13 -33 -9 -14 -35 -56 -59 -94 -23 -38 -47 -74
-51 -80 -5 -6 -23 -29 -40 -51 -16 -22 -42 -56 -57 -75 -46 -60 -243 -254
-317 -312 -85 -67 -220 -158 -235 -158 -5 0 -10 -4 -10 -10 0 -5 -5 -10 -11
-10 -27 0 -167 -115 -170 -141 -3 -19 -5 -24 -12 -36 -4 -7 -9 -48 -11 -92 -5
-104 8 -125 68 -116 41 7 307 133 337 161 8 7 18 14 22 14 6 0 70 40 92 58 6
4 39 30 75 57 75 57 114 92 219 195 98 97 140 145 229 260 23 30 47 61 54 69
21 25 104 156 105 165 1 5 5 12 10 15 8 5 44 67 103 176 48 89 150 348 164
418 10 47 15 69 20 85 3 9 8 32 11 50 6 40 14 81 19 107 29 149 24 594 -8 704
-3 9 -8 34 -11 56 -5 41 -10 64 -21 108 -3 12 -7 33 -10 47 -8 34 -10 42 -16
60 -3 8 -20 59 -37 114 -18 54 -37 110 -43 125 -6 14 -12 28 -13 31 -16 48
-107 233 -152 308 -23 41 -43 76 -43 78 0 3 -5 10 -10 17 -6 7 -43 57 -83 112
-72 100 -91 123 -202 243 -69 76 -80 85 -200 186 -49 41 -96 75 -102 76 -7 0
-13 4 -13 9 0 4 -21 19 -47 32 -27 13 -50 27 -53 30 -7 10 -965 482 -1180 582
-41 19 -149 71 -240 114 -91 44 -199 96 -240 116 -41 19 -133 62 -203 96 -70
34 -132 61 -138 61 -5 0 -9 5 -9 12 0 6 -3 9 -6 5 -3 -3 -22 3 -42 13 -48 24
-313 150 -317 150 -1 0 -59 27 -128 60 -69 33 -131 60 -136 60 -6 0 -11 5 -11
12 0 6 -3 9 -6 6 -3 -4 -36 9 -72 27 -37 18 -89 43 -117 55 -27 12 -79 36
-115 53 -282 129 -444 197 -473 197 -10 0 -35 -17 -56 -37z"/>
<path d="M6500 9360 c-22 -22 -40 -50 -41 -62 0 -13 -2 -32 -4 -43 -5 -27 11
-46 65 -77 44 -25 530 -272 540 -273 3 -1 104 -50 225 -109 121 -60 252 -123
290 -141 39 -18 124 -59 190 -90 66 -32 156 -74 200 -95 111 -52 443 -211 650
-311 72 -34 132 -63 135 -64 20 -4 1037 -510 1123 -558 64 -36 179 -131 170
-141 -4 -3 -1 -6 5 -6 9 0 49 -45 110 -125 50 -65 166 -281 197 -365 36 -101
68 -203 79 -260 3 -14 6 -29 7 -35 18 -72 26 -172 24 -275 -1 -70 -5 -132 -8
-136 -2 -5 -8 -30 -11 -57 -4 -26 -11 -60 -17 -75 -6 -15 -9 -27 -8 -27 5 0
-35 -140 -42 -145 -3 -3 -10 -21 -14 -40 -4 -19 -11 -37 -14 -40 -4 -3 -18
-31 -31 -63 -12 -32 -33 -74 -46 -93 -13 -19 -21 -34 -18 -34 8 0 -113 -176
-164 -236 -53 -63 -111 -124 -185 -192 -26 -23 -47 -47 -47 -52 0 -6 -4 -10
-8 -10 -9 0 -44 -57 -50 -80 -2 -8 -6 -51 -9 -96 -6 -102 12 -156 49 -147 23
6 126 72 158 102 10 9 33 27 51 41 36 27 284 271 309 305 8 11 38 49 66 85
146 188 231 382 269 615 3 17 8 41 10 55 11 52 17 192 17 385 0 258 -9 358
-39 465 -8 30 -16 60 -18 65 -2 11 -7 23 -43 110 -25 61 -73 156 -107 210 -43
70 -91 141 -103 154 -7 8 -21 25 -30 40 -37 55 -233 258 -302 311 -51 39 -120
81 -120 73 0 -5 -4 -2 -8 4 -11 18 -705 365 -1227 613 -82 40 -184 88 -225
108 -41 20 -76 34 -76 31 -1 -2 -11 5 -23 15 -12 11 -21 17 -21 13 0 -3 -44
16 -97 43 -54 26 -125 60 -158 75 -33 15 -98 46 -145 68 -47 23 -87 42 -90 42
-3 1 -34 15 -70 32 -72 34 -296 137 -375 173 -27 12 -77 35 -110 50 -125 57
-184 83 -325 144 -47 20 -93 41 -102 47 -10 5 -25 9 -33 9 -8 0 -15 5 -15 10
0 6 -6 10 -14 10 -7 0 -38 11 -67 24 -56 24 -90 39 -99 40 -3 1 -11 5 -19 10
-7 5 -38 10 -68 12 -51 3 -56 1 -93 -36z"/>
<path d="M6315 8878 c-58 -13 -85 -45 -158 -191 -69 -139 -167 -345 -167 -351
0 -2 -18 -44 -41 -93 -22 -48 -46 -101 -54 -118 -25 -57 -48 -110 -50 -115 -1
-3 -8 -21 -17 -40 -9 -19 -41 -96 -72 -170 -32 -74 -63 -148 -70 -165 -8 -16
-17 -41 -21 -55 -4 -14 -11 -29 -15 -35 -7 -9 -52 -138 -56 -160 -1 -5 -9 -31
-17 -57 -9 -26 -19 -60 -22 -75 -3 -15 -7 -32 -9 -38 -1 -5 -6 -28 -11 -50 -8
-41 -12 -62 -19 -92 -2 -10 -9 -52 -16 -93 -6 -41 -13 -86 -16 -100 -2 -14 -6
-45 -9 -70 -3 -25 -8 -61 -10 -80 -21 -170 -28 -595 -12 -715 5 -33 10 -78 12
-100 3 -22 6 -49 9 -60 4 -19 36 -189 40 -210 1 -5 4 -14 8 -20 3 -5 9 -26 12
-45 3 -19 19 -82 36 -140 17 -58 33 -112 35 -120 18 -68 115 -315 175 -446 54
-118 140 -281 200 -380 71 -115 174 -268 192 -285 10 -9 18 -19 18 -23 0 -6
22 -35 50 -65 8 -10 38 -44 65 -76 61 -73 222 -233 296 -296 114 -98 205 -172
229 -188 14 -9 30 -20 36 -26 6 -5 57 -41 115 -80 57 -38 106 -72 109 -75 10
-10 65 -41 83 -47 9 -3 17 -9 17 -14 0 -5 4 -9 10 -9 5 0 33 -14 62 -31 58
-35 278 -146 343 -174 73 -31 80 -34 120 -51 44 -18 261 -93 285 -99 8 -1 44
-11 80 -20 167 -45 228 -52 245 -29 16 22 17 215 1 249 -16 34 -77 58 -236 90
-13 3 -141 47 -260 90 -64 23 -414 196 -418 206 -2 5 -8 9 -13 9 -5 0 -46 22
-90 50 -44 28 -84 50 -89 50 -4 0 -13 7 -21 16 -7 8 -29 24 -48 34 -20 10 -45
25 -56 34 -91 70 -125 96 -130 96 -3 0 -16 10 -29 22 -13 13 -41 37 -63 55
-53 43 -280 266 -334 328 -57 66 -110 130 -148 180 -17 22 -35 45 -40 51 -5 6
-38 55 -73 110 -124 191 -197 334 -338 659 -10 22 -27 69 -39 105 -12 36 -26
74 -31 85 -9 22 -46 164 -54 208 -30 170 -35 203 -40 275 -2 28 -7 55 -10 61
-4 6 -2 11 4 11 6 0 8 5 4 11 -19 31 -18 707 1 909 6 69 20 150 36 215 5 22
11 52 14 68 2 15 8 33 12 40 4 6 8 17 8 22 1 18 37 130 45 140 4 6 11 24 15
40 10 38 9 33 28 77 10 21 17 42 17 48 0 5 4 10 8 10 5 0 9 6 9 13 0 14 106
259 223 512 15 33 62 139 104 235 43 96 84 187 92 203 8 15 12 27 8 27 -3 0
-2 6 4 13 14 18 60 156 65 197 5 43 -13 82 -45 97 -55 26 -74 29 -113 21z"/>
<path d="M6792 8630 c-19 -16 -102 -180 -202 -400 -50 -110 -71 -159 -75 -170
-1 -3 -16 -36 -33 -73 -18 -38 -32 -71 -32 -73 0 -2 -12 -29 -26 -61 -15 -32
-33 -74 -41 -93 -8 -19 -24 -53 -34 -76 -10 -22 -19 -43 -19 -47 0 -4 -9 -26
-19 -50 -38 -83 -55 -122 -56 -132 0 -5 -3 -15 -7 -20 -4 -6 -18 -42 -32 -80
-15 -39 -30 -79 -36 -90 -11 -25 -58 -176 -64 -207 -2 -13 -9 -43 -16 -68 -7
-25 -14 -58 -16 -73 -2 -16 -5 -36 -8 -46 -4 -14 -10 -46 -22 -131 -26 -189
-26 -569 1 -734 2 -17 7 -49 10 -71 12 -85 18 -112 51 -244 44 -175 40 -158
59 -216 10 -27 19 -54 20 -60 2 -12 3 -14 61 -157 24 -59 59 -138 79 -177 19
-39 36 -74 37 -78 1 -5 14 -28 30 -52 15 -25 28 -51 28 -58 0 -7 5 -13 10 -13
6 0 10 -5 10 -10 0 -11 117 -194 154 -241 12 -15 30 -39 41 -55 11 -15 31 -41
45 -58 14 -17 32 -39 40 -49 78 -98 252 -274 355 -361 39 -32 72 -63 73 -67 2
-5 8 -9 13 -9 6 0 15 -5 22 -10 7 -6 23 -20 37 -31 71 -60 325 -221 334 -212
3 4 6 2 6 -4 0 -9 233 -126 246 -123 4 1 10 -2 13 -7 6 -8 56 -28 181 -70 41
-14 82 -28 90 -31 8 -3 18 -6 23 -7 4 -2 8 -3 10 -5 1 -1 9 -3 17 -5 8 -2 33
-9 55 -15 135 -37 142 -30 143 154 l1 132 -117 39 c-64 21 -121 41 -127 44 -5
3 -14 6 -20 7 -68 11 -483 215 -515 253 -3 3 -17 13 -31 21 -15 8 -39 24 -54
35 -104 77 -171 128 -175 134 -3 3 -26 23 -52 44 -62 50 -219 205 -289 287
-61 71 -199 256 -199 266 0 4 -10 21 -23 38 -82 109 -257 493 -282 618 -2 9
-9 26 -15 37 -6 12 -9 21 -6 21 3 0 0 15 -5 33 -8 27 -21 80 -45 192 -2 11 -6
38 -9 60 -3 22 -7 51 -10 65 -15 85 -20 183 -19 405 1 138 4 273 8 300 8 65
15 115 21 145 3 14 8 40 11 59 3 18 14 66 25 105 11 39 22 80 24 90 15 66 119
348 165 450 10 23 33 75 51 116 33 77 57 132 114 256 19 40 48 105 65 145 18
41 46 103 62 139 114 248 135 340 87 384 -59 55 -157 78 -197 46z"/>
<path d="M7351 8379 c-28 -17 -75 -79 -88 -117 -3 -9 -12 -24 -19 -32 -7 -8
-13 -19 -14 -25 -1 -5 -12 -28 -23 -50 -11 -22 -22 -47 -23 -55 -2 -8 -8 -16
-13 -18 -6 -2 -11 -8 -11 -13 0 -6 -20 -52 -44 -102 -41 -87 -53 -113 -106
-232 -12 -27 -33 -73 -46 -101 -13 -28 -24 -56 -24 -62 0 -7 -4 -12 -10 -12
-5 0 -9 -3 -8 -7 2 -7 -49 -137 -72 -182 -10 -20 -21 -48 -58 -141 -16 -41
-33 -84 -37 -95 -4 -11 -9 -24 -10 -30 -1 -5 -10 -31 -18 -57 -9 -26 -19 -57
-21 -70 -3 -13 -10 -41 -15 -63 -17 -69 -33 -178 -37 -250 -3 -72 -3 -492 0
-545 5 -60 16 -182 20 -200 1 -8 7 -37 11 -65 5 -27 10 -52 10 -55 1 -3 5 -18
9 -35 4 -16 14 -51 22 -76 8 -25 16 -54 18 -65 4 -19 78 -199 95 -232 5 -9 21
-44 36 -77 37 -83 123 -227 184 -308 28 -37 51 -69 51 -71 0 -7 103 -118 195
-210 118 -118 180 -174 261 -236 32 -25 61 -48 62 -52 2 -5 10 -8 17 -8 7 0
15 -4 17 -9 5 -15 219 -150 318 -200 95 -48 252 -113 301 -125 15 -3 34 0 45
8 17 13 19 28 20 122 1 63 -3 116 -10 129 -15 28 -42 55 -55 55 -6 0 -11 4
-11 8 0 5 -19 16 -42 26 -59 26 -204 98 -252 125 -43 24 -188 121 -196 130 -3
3 -32 26 -64 51 -93 71 -277 257 -355 360 -19 25 -37 47 -40 50 -21 18 -122
177 -184 290 -52 95 -135 299 -141 346 -2 11 -6 25 -9 31 -8 13 -18 60 -22
103 -2 19 -4 35 -5 35 -18 0 -29 449 -16 650 11 171 34 274 98 450 41 114 51
137 100 241 15 34 28 65 28 68 0 3 18 43 40 90 22 46 40 89 40 95 0 6 5 11 10
11 6 0 10 5 10 10 0 6 32 80 70 165 39 86 88 199 109 253 21 53 42 106 46 117
4 11 9 25 11 30 42 140 41 179 -7 219 -17 14 -36 27 -42 27 -61 6 -81 4 -106
-12z"/>
<path d="M7919 8139 c-35 -18 -63 -50 -99 -114 -28 -50 -136 -264 -149 -295
-6 -14 -15 -32 -21 -40 -15 -24 -83 -173 -86 -190 -2 -8 -8 -16 -13 -18 -6 -2
-11 -10 -11 -17 0 -7 -23 -62 -51 -121 -28 -60 -66 -143 -85 -184 -19 -41 -48
-102 -63 -135 -16 -33 -29 -63 -30 -68 0 -4 -15 -35 -32 -69 l-31 -62 1 -370
c2 -467 3 -491 43 -616 17 -54 125 -283 179 -380 17 -31 93 -143 122 -182 49
-64 227 -239 307 -300 100 -77 265 -188 279 -188 5 0 11 -3 13 -7 6 -14 98
-53 123 -53 28 0 27 -4 30 133 1 45 -3 97 -9 115 -16 47 -73 101 -186 177
-100 67 -286 236 -273 248 3 4 1 7 -5 7 -12 0 -122 143 -122 159 0 5 -4 11 -9
13 -17 6 -131 227 -155 301 -41 127 -47 182 -52 560 -4 229 -2 312 7 323 6 8
8 14 3 14 -5 0 -4 4 1 8 6 4 24 36 40 72 25 57 54 120 165 355 44 92 105 225
128 275 11 25 38 83 59 130 22 47 48 108 58 135 10 28 22 55 26 60 13 19 59
162 65 203 6 46 -14 86 -62 117 -36 24 -65 25 -105 4z"/>
<path d="M8592 7888 c-15 -32 -21 -77 -29 -209 -7 -106 -10 -4516 -3 -4854 0
-11 0 -41 1 -67 1 -25 -2 -51 -6 -57 -3 -6 -3 -11 2 -11 4 0 9 -152 10 -338 4
-706 19 -1262 38 -1452 20 -192 41 -270 109 -412 51 -106 172 -311 186 -316 6
-2 10 -9 10 -16 0 -6 8 -18 18 -27 9 -8 28 -28 42 -45 30 -35 80 -71 98 -68 6
1 16 2 21 3 10 1 89 77 111 107 45 61 60 84 60 93 0 5 4 11 8 13 8 3 143 261
143 273 0 2 8 25 19 50 23 54 67 197 74 240 33 214 40 806 40 3869 1 2496 -1
2820 -14 2827 -8 5 -64 32 -125 60 -60 28 -139 65 -175 82 -36 17 -67 32 -70
32 -8 2 -87 39 -202 94 -59 28 -109 51 -112 51 -2 0 -38 16 -79 35 -61 29
-152 65 -162 65 -1 0 -7 -10 -13 -22z"/>
</g>
</svg>
